<?xml version="1.0" encoding="UTF-8"?>
<svg
  xmlns="http://www.w3.org/2000/svg"
  xmlns:xlink="http://www.w3.org/1999/xlink"
  width="1100"
  height="850"
  id="svg2">
  <g>
    <!-- side glue flap -->
    <rect x="700" y="310" width="65" height="330" fill="#CCC" stroke="none" />

    <!-- bottom glue flap -->
    <rect x="470" y="660" width="210" height="65" fill="#CCC" stroke="none" />

    <!-- tuck flap -->
    <path d="M 145 215
             L 145 165
             L 170 140
             L 355 140
             L 375 165
             L 375 215 " fill="none" stroke-width="1.5" stroke="#CCC" />

    <!-- tuck side 1 -->
    <path d="M 60 300
             L 60 290
             L 70 275
             L 80 225
             L 145 225
             L 145 300 " fill="none" stroke-width="1.5" stroke="#CCC" />
    <!-- tuck side 2 -->
    <path d="M 375 300
             L 375 225
             L 440 225
             L 450 275
             L 460 290
             L 460 300 " fill="none" stroke-width="1.5" stroke="#CCC" />

    <!-- bottom left side glue -->
    <rect x="70"  y="660" width="65" height="55" fill="#CCC" stroke="none" />

    <!-- bottom right side glue -->
    <rect x="385"  y="660" width="65" height="55" fill="#CCC" stroke="none" />

  </g>
  <g id="fold lines" >
    <!-- bottom
    <line x1="60"  y1="650" x2="690"  y2="650" stroke-width="1" stroke="#CCC" stroke-dasharray="20,10" />
    -->
    <line x1="145"  y1="215" x2="375"  y2="215" stroke-width="1" stroke="#CCC" stroke-dasharray="2,4" />
    <line x1="60"  y1="300" x2="460"  y2="300" stroke-width="1" stroke="#CCC" stroke-dasharray="2,4" />
    <line x1="60"  y1="650" x2="690"  y2="650" stroke-width="1" stroke="#CCC" stroke-dasharray="2,4" />
    <line x1="145"  y1="300" x2="145"  y2="650" stroke-width="1" stroke="#CCC" stroke-dasharray="2,4" />
    <line x1="375"  y1="300" x2="375"  y2="650" stroke-width="1" stroke="#CCC" stroke-dasharray="2,4" />
    <line x1="460"  y1="300" x2="460"  y2="650" stroke-width="1" stroke="#CCC" stroke-dasharray="2,4" />
    <line x1="690"  y1="300" x2="690"  y2="650" stroke-width="1" stroke="#CCC" stroke-dasharray="2,4" />
  </g>
  <g id="cut lines" >
    <!-- left side -->
    <line x1="60"  y1="300" x2="60"  y2="725" stroke-width="1.5" stroke="#CCC" />
    <!--
    -->
    <!-- left glue flap bottom -->
    <line x1="60"  y1="725" x2="145" y2="725" stroke-width="1.5" stroke="#CCC" />
    <!-- bottom left side  -->
    <line x1="145" y1="650" x2="145" y2="735" stroke-width="1.5" stroke="#CCC" />
    <!-- bottom -->
    <line x1="145" y1="735" x2="375" y2="735" stroke-width="1.5" stroke="#CCC" />
    <!-- bottom right side -->
    <line x1="375" y1="650" x2="375" y2="735" stroke-width="1.5" stroke="#CCC" />
    <!-- right glue flap bottom -->
    <line x1="375"  y1="725" x2="460" y2="725" stroke-width="1.5" stroke="#CCC" />
    <!-- bottom glue flap left side  -->
    <line x1="460" y1="650" x2="460" y2="735" stroke-width="1.5" stroke="#CCC" />
    <!-- bottom glue flap -->
    <line x1="460" y1="735" x2="690" y2="735" stroke-width="1.5" stroke="#CCC" />
    <!-- bottom right side glue flap -->
    <line x1="690" y1="650" x2="690" y2="735" stroke-width="1.5" stroke="#CCC" />
    <!-- bottom of side glue flap -->
    <line x1="690" y1="650" x2="775" y2="650" stroke-width="1.5" stroke="#CCC" />
    <!-- right side of side glue flap -->
    <line x1="775" y1="300" x2="775" y2="650" stroke-width="1.5" stroke="#CCC" />
    <!-- top of front and side glue flap -->
    <line x1="460" y1="300" x2="775" y2="300" stroke-width="1.5" stroke="#CCC" />
    <!-- notch -->
    <circle cx="575" cy="300" r="35" fill="none" stroke="#CCC" stroke-width="1.5"  />
    <line x1="575" y1="300" x2="575" y2="335" stroke="#CCC" stroke-width="1.5" />
    <!-- top, left side -->
    <line x1="145" y1="215" x2="145" y2="300" stroke="#CCC" stroke-width="1.5" />
    <!-- top, right side -->
    <line x1="375" y1="215" x2="375" y2="300" stroke="#CCC" stroke-width="1.5" />
    <!-- tuck flap fold left -->
    <line x1="145" y1="215" x2="175" y2="215" stroke-width="1.5" stroke="#CCC" />
    <!-- tuck flap fold right -->
    <line x1="345" y1="215" x2="375" y2="215" stroke-width="1.5" stroke="#CCC" />
    <line x1="" y1="" x2="" y2="" stroke-width="1.5" stroke="#CCC" />
    <!--  -->
    <line x1="" y1="" x2="" y2="" stroke-width="1.5" stroke="#CCC" />
    <!--  -->
    <line x1="" y1="" x2="" y2="" stroke-width="1.5" stroke="#CCC" />
  </g>
  <g>
<circle cx="60" cy="735" r="5" fill="green" />
<text x="70" y="735" style="font-family:Verdana;font-size:12" fill="green">0</text>
<circle cx="60" cy="725" r="5" fill="green" />
<text x="70" y="725" style="font-family:Verdana;font-size:12" fill="green">1</text>
<circle cx="60" cy="650" r="5" fill="green" />
<text x="70" y="650" style="font-family:Verdana;font-size:12" fill="green">2</text>
<circle cx="60" cy="300" r="5" fill="green" />
<text x="70" y="300" style="font-family:Verdana;font-size:12" fill="green">3</text>
<circle cx="60" cy="290" r="5" fill="green" />
<text x="70" y="290" style="font-family:Verdana;font-size:12" fill="green">4</text>
<circle cx="70" cy="275" r="5" fill="green" />
<text x="80" y="275" style="font-family:Verdana;font-size:12" fill="green">5</text>
<circle cx="80" cy="225" r="5" fill="green" />
<text x="90" y="225" style="font-family:Verdana;font-size:12" fill="green">6</text>
<circle cx="145" cy="165" r="5" fill="green" />
<text x="155" y="165" style="font-family:Verdana;font-size:12" fill="green">7</text>
<circle cx="145" cy="215" r="5" fill="green" />
<text x="155" y="215" style="font-family:Verdana;font-size:12" fill="green">8</text>
<circle cx="145" cy="225" r="5" fill="green" />
<text x="155" y="225" style="font-family:Verdana;font-size:12" fill="green">9</text>
<circle cx="145" cy="300" r="5" fill="green" />
<text x="155" y="300" style="font-family:Verdana;font-size:12" fill="green">10</text>
<circle cx="145" cy="725" r="5" fill="green" />
<text x="155" y="725" style="font-family:Verdana;font-size:12" fill="green">11</text>
<circle cx="145" cy="735" r="5" fill="green" />
<text x="155" y="735" style="font-family:Verdana;font-size:12" fill="green">12</text>
<circle cx="145" cy="650" r="5" fill="green" />
<text x="155" y="650" style="font-family:Verdana;font-size:12" fill="green">13</text>
<circle cx="170" cy="140" r="5" fill="green" />
<text x="180" y="140" style="font-family:Verdana;font-size:12" fill="green">14</text>
<circle cx="170" cy="215" r="5" fill="green" />
<text x="180" y="215" style="font-family:Verdana;font-size:12" fill="green">15</text>
<circle cx="355" cy="140" r="5" fill="green" />
<text x="365" y="140" style="font-family:Verdana;font-size:12" fill="green">16</text>
<circle cx="355" cy="215" r="5" fill="green" />
<text x="365" y="215" style="font-family:Verdana;font-size:12" fill="green">17</text>
<circle cx="375" cy="165" r="5" fill="green" />
<text x="385" y="165" style="font-family:Verdana;font-size:12" fill="green">18</text>
<circle cx="375" cy="215" r="5" fill="green" />
<text x="385" y="215" style="font-family:Verdana;font-size:12" fill="green">19</text>
<circle cx="375" cy="225" r="5" fill="green" />
<text x="385" y="225" style="font-family:Verdana;font-size:12" fill="green">20</text>
<circle cx="375" cy="300" r="5" fill="green" />
<text x="385" y="300" style="font-family:Verdana;font-size:12" fill="green">21</text>
<circle cx="375" cy="725" r="5" fill="green" />
<text x="385" y="725" style="font-family:Verdana;font-size:12" fill="green">22</text>
<circle cx="375" cy="735" r="5" fill="green" />
<text x="385" y="735" style="font-family:Verdana;font-size:12" fill="green">23</text>
<circle cx="375" cy="650" r="5" fill="green" />
<text x="385" y="650" style="font-family:Verdana;font-size:12" fill="green">24</text>
<circle cx="440" cy="225" r="5" fill="green" />
<text x="450" y="225" style="font-family:Verdana;font-size:12" fill="green">25</text>
<circle cx="450" cy="275" r="5" fill="green" />
<text x="460" y="275" style="font-family:Verdana;font-size:12" fill="green">26</text>
<circle cx="460" cy="290" r="5" fill="green" />
<text x="470" y="290" style="font-family:Verdana;font-size:12" fill="green">27</text>
<circle cx="460" cy="300" r="5" fill="green" />
<text x="470" y="300" style="font-family:Verdana;font-size:12" fill="green">28</text>
<circle cx="460" cy="650" r="5" fill="green" />
<text x="470" y="650" style="font-family:Verdana;font-size:12" fill="green">29</text>
<circle cx="460" cy="725" r="5" fill="green" />
<text x="470" y="725" style="font-family:Verdana;font-size:12" fill="green">30</text>
<circle cx="460" cy="735" r="5" fill="green" />
<text x="470" y="735" style="font-family:Verdana;font-size:12" fill="green">31</text>
<circle cx="690" cy="300" r="5" fill="green" />
<text x="700" y="300" style="font-family:Verdana;font-size:12" fill="green">32</text>
<circle cx="690" cy="650" r="5" fill="green" />
<text x="700" y="650" style="font-family:Verdana;font-size:12" fill="green">33</text>
<circle cx="690" cy="735" r="5" fill="green" />
<text x="700" y="735" style="font-family:Verdana;font-size:12" fill="green">34</text>
<circle cx="775" cy="300" r="5" fill="green" />
<text x="785" y="300" style="font-family:Verdana;font-size:12" fill="green">35</text>
<circle cx="775" cy="650" r="5" fill="green" />
<text x="785" y="650" style="font-family:Verdana;font-size:12" fill="green">36</text>
<circle cx="575.0" cy="300" r="5" fill="green" />
<text x="585.0" y="300" style="font-family:Verdana;font-size:12" fill="green">37</text>
<line x1="60" y1="725" x2="60" y2="290" stroke-width="1.5" stroke="black" />
<line x1="60" y1="290" x2="70" y2="275" stroke-width="1.5" stroke="black" />
<line x1="70" y1="275" x2="80" y2="225" stroke-width="1.5" stroke="black" />
<line x1="80" y1="225" x2="145" y2="225" stroke-width="1.5" stroke="black" />
<line x1="145" y1="215" x2="170" y2="215" stroke-width="1.5" stroke="black" />
<line x1="60" y1="725" x2="145" y2="725" stroke-width="1.5" stroke="black" />
<line x1="145" y1="735" x2="145" y2="650" stroke-width="1.5" stroke="black" />
<line x1="145" y1="165" x2="145" y2="300" stroke-width="1.5" stroke="black" />
<line x1="145" y1="165" x2="170" y2="140" stroke-width="1.5" stroke="black" />
<line x1="170" y1="140" x2="355" y2="140" stroke-width="1.5" stroke="black" />
<line x1="355" y1="140" x2="375" y2="165" stroke-width="1.5" stroke="black" />
<line x1="375" y1="165" x2="375" y2="300" stroke-width="1.5" stroke="black" />
<line x1="375" y1="225" x2="440" y2="225" stroke-width="1.5" stroke="black" />
<line x1="440" y1="225" x2="450" y2="275" stroke-width="1.5" stroke="black" />
<line x1="450" y1="275" x2="460" y2="290" stroke-width="1.5" stroke="black" />
<line x1="460" y1="290" x2="460" y2="300" stroke-width="1.5" stroke="black" />
<line x1="460" y1="300" x2="775" y2="300" stroke-width="1.5" stroke="black" />
<line x1="775" y1="300" x2="775" y2="650" stroke-width="1.5" stroke="black" />
<line x1="690" y1="650" x2="775" y2="650" stroke-width="1.5" stroke="black" />
<line x1="690" y1="650" x2="690" y2="735" stroke-width="1.5" stroke="black" />
<line x1="460" y1="735" x2="690" y2="735" stroke-width="1.5" stroke="black" />
<line x1="460" y1="650" x2="460" y2="735" stroke-width="1.5" stroke="black" />
<line x1="375" y1="650" x2="375" y2="735" stroke-width="1.5" stroke="black" />
<line x1="375" y1="725" x2="460" y2="725" stroke-width="1.5" stroke="black" />
<line x1="145" y1="735" x2="375" y2="735" stroke-width="1.5" stroke="black" />
<line x1="355" y1="215" x2="375" y2="215" stroke-width="1.5" stroke="black" />
<line x1="60" y1="650" x2="690" y2="650" stroke-width="1.5" stroke="black" stroke-dasharray="2,4" />
<line x1="60" y1="300" x2="460" y2="300" stroke-width="1.5" stroke="black" stroke-dasharray="2,4" />
<line x1="170" y1="215" x2="355" y2="215" stroke-width="1.5" stroke="black" stroke-dasharray="2,4" />
<line x1="145" y1="300" x2="145" y2="650" stroke-width="1.5" stroke="black" stroke-dasharray="2,4" />
<line x1="375" y1="300" x2="375" y2="650" stroke-width="1.5" stroke="black" stroke-dasharray="2,4" />
<line x1="460" y1="300" x2="460" y2="650" stroke-width="1.5" stroke="black" stroke-dasharray="2,4" />
<line x1="690" y1="300" x2="690" y2="650" stroke-width="1.5" stroke="black" stroke-dasharray="2,4" />
  </g>
</svg>
