<?xml version="1.0" encoding="UTF-8"?>
<svg
  xmlns="http://www.w3.org/2000/svg"
  xmlns:xlink="http://www.w3.org/1999/xlink"
  width="1100"
  height="1700"
  id="svg2">
  <g>
    <rect x="50" y="50" width="1000" height="750" stroke-width="1" stroke="black" fill="white" />"
  </g>
  <g>
<circle cx="60" cy="790" r="5" fill="green" />
<text x="70" y="790" style="font-family:Verdana;font-size:12" fill="green">0</text>
<circle cx="60" cy="780" r="5" fill="green" />
<text x="70" y="780" style="font-family:Verdana;font-size:12" fill="green">1</text>
<circle cx="60" cy="735" r="5" fill="green" />
<text x="70" y="735" style="font-family:Verdana;font-size:12" fill="green">2</text>
<circle cx="60" cy="410" r="5" fill="green" />
<text x="70" y="410" style="font-family:Verdana;font-size:12" fill="green">3</text>
<circle cx="60" cy="400" r="5" fill="green" />
<text x="70" y="400" style="font-family:Verdana;font-size:12" fill="green">4</text>
<circle cx="70" cy="385" r="5" fill="green" />
<text x="80" y="385" style="font-family:Verdana;font-size:12" fill="green">5</text>
<circle cx="80" cy="345" r="5" fill="green" />
<text x="90" y="345" style="font-family:Verdana;font-size:12" fill="green">6</text>
<circle cx="115" cy="305" r="5" fill="green" />
<text x="125" y="305" style="font-family:Verdana;font-size:12" fill="green">7</text>
<circle cx="115" cy="355" r="5" fill="green" />
<text x="125" y="355" style="font-family:Verdana;font-size:12" fill="green">8</text>
<circle cx="115" cy="345" r="5" fill="green" />
<text x="125" y="345" style="font-family:Verdana;font-size:12" fill="green">9</text>
<circle cx="115" cy="410" r="5" fill="green" />
<text x="125" y="410" style="font-family:Verdana;font-size:12" fill="green">10</text>
<circle cx="115" cy="780" r="5" fill="green" />
<text x="125" y="780" style="font-family:Verdana;font-size:12" fill="green">11</text>
<circle cx="115" cy="790" r="5" fill="green" />
<text x="125" y="790" style="font-family:Verdana;font-size:12" fill="green">12</text>
<circle cx="115" cy="735" r="5" fill="green" />
<text x="125" y="735" style="font-family:Verdana;font-size:12" fill="green">13</text>
<circle cx="140" cy="280" r="5" fill="green" />
<text x="150" y="280" style="font-family:Verdana;font-size:12" fill="green">14</text>
<circle cx="140" cy="355" r="5" fill="green" />
<text x="150" y="355" style="font-family:Verdana;font-size:12" fill="green">15</text>
<circle cx="345" cy="280" r="5" fill="green" />
<text x="355" y="280" style="font-family:Verdana;font-size:12" fill="green">16</text>
<circle cx="345" cy="355" r="5" fill="green" />
<text x="355" y="355" style="font-family:Verdana;font-size:12" fill="green">17</text>
<circle cx="365" cy="305" r="5" fill="green" />
<text x="375" y="305" style="font-family:Verdana;font-size:12" fill="green">18</text>
<circle cx="365" cy="355" r="5" fill="green" />
<text x="375" y="355" style="font-family:Verdana;font-size:12" fill="green">19</text>
<circle cx="365" cy="345" r="5" fill="green" />
<text x="375" y="345" style="font-family:Verdana;font-size:12" fill="green">20</text>
<circle cx="365" cy="410" r="5" fill="green" />
<text x="375" y="410" style="font-family:Verdana;font-size:12" fill="green">21</text>
<circle cx="365" cy="780" r="5" fill="green" />
<text x="375" y="780" style="font-family:Verdana;font-size:12" fill="green">22</text>
<circle cx="365" cy="790" r="5" fill="green" />
<text x="375" y="790" style="font-family:Verdana;font-size:12" fill="green">23</text>
<circle cx="365" cy="735" r="5" fill="green" />
<text x="375" y="735" style="font-family:Verdana;font-size:12" fill="green">24</text>
<circle cx="400" cy="345" r="5" fill="green" />
<text x="410" y="345" style="font-family:Verdana;font-size:12" fill="green">25</text>
<circle cx="410" cy="385" r="5" fill="green" />
<text x="420" y="385" style="font-family:Verdana;font-size:12" fill="green">26</text>
<circle cx="420" cy="400" r="5" fill="green" />
<text x="430" y="400" style="font-family:Verdana;font-size:12" fill="green">27</text>
<circle cx="420" cy="410" r="5" fill="green" />
<text x="430" y="410" style="font-family:Verdana;font-size:12" fill="green">28</text>
<circle cx="420" cy="735" r="5" fill="green" />
<text x="430" y="735" style="font-family:Verdana;font-size:12" fill="green">29</text>
<circle cx="420" cy="780" r="5" fill="green" />
<text x="430" y="780" style="font-family:Verdana;font-size:12" fill="green">30</text>
<circle cx="420" cy="790" r="5" fill="green" />
<text x="430" y="790" style="font-family:Verdana;font-size:12" fill="green">31</text>
<circle cx="670" cy="410" r="5" fill="green" />
<text x="680" y="410" style="font-family:Verdana;font-size:12" fill="green">32</text>
<circle cx="670" cy="735" r="5" fill="green" />
<text x="680" y="735" style="font-family:Verdana;font-size:12" fill="green">33</text>
<circle cx="670" cy="790" r="5" fill="green" />
<text x="680" y="790" style="font-family:Verdana;font-size:12" fill="green">34</text>
<circle cx="725" cy="410" r="5" fill="green" />
<text x="735" y="410" style="font-family:Verdana;font-size:12" fill="green">35</text>
<circle cx="725" cy="735" r="5" fill="green" />
<text x="735" y="735" style="font-family:Verdana;font-size:12" fill="green">36</text>
<circle cx="545.0" cy="410" r="5" fill="green" />
<text x="555.0" y="410" style="font-family:Verdana;font-size:12" fill="green">37</text>
<circle cx="70" cy="745" r="5" fill="green" />
<text x="80" y="745" style="font-family:Verdana;font-size:12" fill="green">38</text>
<circle cx="375" cy="745" r="5" fill="green" />
<text x="385" y="745" style="font-family:Verdana;font-size:12" fill="green">39</text>
<circle cx="430" cy="745" r="5" fill="green" />
<text x="440" y="745" style="font-family:Verdana;font-size:12" fill="green">40</text>
<circle cx="680" cy="420" r="5" fill="green" />
<text x="690" y="420" style="font-family:Verdana;font-size:12" fill="green">41</text>
<circle cx="1040" cy="1585" r="5" fill="green" />
<text x="1050" y="1585" style="font-family:Verdana;font-size:12" fill="green">42</text>
<circle cx="1040" cy="1260" r="5" fill="green" />
<text x="1050" y="1260" style="font-family:Verdana;font-size:12" fill="green">43</text>
<circle cx="1040" cy="1250" r="5" fill="green" />
<text x="1050" y="1250" style="font-family:Verdana;font-size:12" fill="green">44</text>
<circle cx="1030" cy="1235" r="5" fill="green" />
<text x="1040" y="1235" style="font-family:Verdana;font-size:12" fill="green">45</text>
<circle cx="1020" cy="1195" r="5" fill="green" />
<text x="1030" y="1195" style="font-family:Verdana;font-size:12" fill="green">46</text>
<circle cx="985" cy="1155" r="5" fill="green" />
<text x="995" y="1155" style="font-family:Verdana;font-size:12" fill="green">47</text>
<circle cx="985" cy="1205" r="5" fill="green" />
<text x="995" y="1205" style="font-family:Verdana;font-size:12" fill="green">48</text>
<circle cx="985" cy="1195" r="5" fill="green" />
<text x="995" y="1195" style="font-family:Verdana;font-size:12" fill="green">49</text>
<circle cx="985" cy="1260" r="5" fill="green" />
<text x="995" y="1260" style="font-family:Verdana;font-size:12" fill="green">50</text>
<circle cx="985" cy="1630" r="5" fill="green" />
<text x="995" y="1630" style="font-family:Verdana;font-size:12" fill="green">51</text>
<circle cx="985" cy="1640" r="5" fill="green" />
<text x="995" y="1640" style="font-family:Verdana;font-size:12" fill="green">52</text>
<circle cx="985" cy="1585" r="5" fill="green" />
<text x="995" y="1585" style="font-family:Verdana;font-size:12" fill="green">53</text>
<circle cx="960" cy="1130" r="5" fill="green" />
<text x="970" y="1130" style="font-family:Verdana;font-size:12" fill="green">54</text>
<circle cx="960" cy="1205" r="5" fill="green" />
<text x="970" y="1205" style="font-family:Verdana;font-size:12" fill="green">55</text>
<circle cx="-265" cy="1130" r="5" fill="green" />
<text x="-255" y="1130" style="font-family:Verdana;font-size:12" fill="green">56</text>
<circle cx="-265" cy="1205" r="5" fill="green" />
<text x="-255" y="1205" style="font-family:Verdana;font-size:12" fill="green">57</text>
<circle cx="735" cy="1155" r="5" fill="green" />
<text x="745" y="1155" style="font-family:Verdana;font-size:12" fill="green">58</text>
<circle cx="735" cy="1205" r="5" fill="green" />
<text x="745" y="1205" style="font-family:Verdana;font-size:12" fill="green">59</text>
<circle cx="735" cy="1195" r="5" fill="green" />
<text x="745" y="1195" style="font-family:Verdana;font-size:12" fill="green">60</text>
<circle cx="735" cy="1260" r="5" fill="green" />
<text x="745" y="1260" style="font-family:Verdana;font-size:12" fill="green">61</text>
<circle cx="735" cy="1630" r="5" fill="green" />
<text x="745" y="1630" style="font-family:Verdana;font-size:12" fill="green">62</text>
<circle cx="735" cy="1640" r="5" fill="green" />
<text x="745" y="1640" style="font-family:Verdana;font-size:12" fill="green">63</text>
<circle cx="735" cy="1585" r="5" fill="green" />
<text x="745" y="1585" style="font-family:Verdana;font-size:12" fill="green">64</text>
<circle cx="-320" cy="1195" r="5" fill="green" />
<text x="-310" y="1195" style="font-family:Verdana;font-size:12" fill="green">65</text>
<circle cx="690" cy="1235" r="5" fill="green" />
<text x="700" y="1235" style="font-family:Verdana;font-size:12" fill="green">66</text>
<circle cx="680" cy="1250" r="5" fill="green" />
<text x="690" y="1250" style="font-family:Verdana;font-size:12" fill="green">67</text>
<circle cx="680" cy="1260" r="5" fill="green" />
<text x="690" y="1260" style="font-family:Verdana;font-size:12" fill="green">68</text>
<circle cx="680" cy="1585" r="5" fill="green" />
<text x="690" y="1585" style="font-family:Verdana;font-size:12" fill="green">69</text>
<circle cx="680" cy="1630" r="5" fill="green" />
<text x="690" y="1630" style="font-family:Verdana;font-size:12" fill="green">70</text>
<circle cx="680" cy="1640" r="5" fill="green" />
<text x="690" y="1640" style="font-family:Verdana;font-size:12" fill="green">71</text>
<circle cx="430" cy="1260" r="5" fill="green" />
<text x="440" y="1260" style="font-family:Verdana;font-size:12" fill="green">72</text>
<circle cx="430" cy="1585" r="5" fill="green" />
<text x="440" y="1585" style="font-family:Verdana;font-size:12" fill="green">73</text>
  </g>
  <g id="cut lines">
  <line x1="60" y1="780" x2="60" y2="400" stroke-width="1.5" stroke="black" />
  <line x1="60" y1="400" x2="70" y2="385" stroke-width="1.5" stroke="black" />
  <line x1="70" y1="385" x2="80" y2="345" stroke-width="1.5" stroke="black" />
  <line x1="80" y1="345" x2="115" y2="345" stroke-width="1.5" stroke="black" />
  <line x1="115" y1="355" x2="140" y2="355" stroke-width="1.5" stroke="black" />
  <line x1="60" y1="780" x2="115" y2="780" stroke-width="1.5" stroke="black" />
  <line x1="115" y1="790" x2="115" y2="735" stroke-width="1.5" stroke="black" />
  <line x1="115" y1="305" x2="115" y2="410" stroke-width="1.5" stroke="black" />
  <line x1="115" y1="305" x2="140" y2="280" stroke-width="1.5" stroke="black" />
  <line x1="140" y1="280" x2="345" y2="280" stroke-width="1.5" stroke="black" />
  <line x1="345" y1="280" x2="365" y2="305" stroke-width="1.5" stroke="black" />
  <line x1="365" y1="305" x2="365" y2="410" stroke-width="1.5" stroke="black" />
  <line x1="365" y1="345" x2="400" y2="345" stroke-width="1.5" stroke="black" />
  <line x1="400" y1="345" x2="410" y2="385" stroke-width="1.5" stroke="black" />
  <line x1="410" y1="385" x2="420" y2="400" stroke-width="1.5" stroke="black" />
  <line x1="420" y1="400" x2="420" y2="410" stroke-width="1.5" stroke="black" />
  <line x1="420" y1="410" x2="725" y2="410" stroke-width="1.5" stroke="black" />
  <line x1="725" y1="410" x2="725" y2="735" stroke-width="1.5" stroke="black" />
  <line x1="670" y1="735" x2="725" y2="735" stroke-width="1.5" stroke="black" />
  <line x1="670" y1="735" x2="670" y2="790" stroke-width="1.5" stroke="black" />
  <line x1="420" y1="790" x2="670" y2="790" stroke-width="1.5" stroke="black" />
  <line x1="420" y1="735" x2="420" y2="790" stroke-width="1.5" stroke="black" />
  <line x1="365" y1="735" x2="365" y2="790" stroke-width="1.5" stroke="black" />
  <line x1="365" y1="780" x2="420" y2="780" stroke-width="1.5" stroke="black" />
  <line x1="115" y1="790" x2="365" y2="790" stroke-width="1.5" stroke="black" />
  <line x1="345" y1="355" x2="365" y2="355" stroke-width="1.5" stroke="black" />
  </g>
  <g id="fold lines">
  <line x1="60" y1="735" x2="670" y2="735" stroke-width="1.5" stroke="black" stroke-dasharray="2,4" />
  <line x1="60" y1="410" x2="420" y2="410" stroke-width="1.5" stroke="black" stroke-dasharray="2,4" />
  <line x1="140" y1="355" x2="345" y2="355" stroke-width="1.5" stroke="black" stroke-dasharray="2,4" />
  <line x1="115" y1="410" x2="115" y2="735" stroke-width="1.5" stroke="black" stroke-dasharray="2,4" />
  <line x1="365" y1="410" x2="365" y2="735" stroke-width="1.5" stroke="black" stroke-dasharray="2,4" />
  <line x1="420" y1="410" x2="420" y2="735" stroke-width="1.5" stroke="black" stroke-dasharray="2,4" />
  <line x1="670" y1="410" x2="670" y2="735" stroke-width="1.5" stroke="black" stroke-dasharray="2,4" />
  </g>
  <g id="glue boxes">
  <rect x="680" y="420" width="35" height="305" fill="#CCC" stroke="none" />
  <rect x="430" y="745" width="230" height="35" fill="#CCC" stroke="none" />
  <rect x="70" y="745" width="35" height="25" fill="#CCC" stroke="none" />
  <rect x="375" y="745" width="35" height="25" fill="#CCC" stroke="none" />
  </g>
  <g id="images">
    <image x="430" y="1260" width="250" height="325"  preserveAspectRatio="none" xlink:href="../how_high_can_I_go.png" />
    <image x="735" y="1260" width="250" height="325" xlink:href="../how_high_can_I_go.png" />
    <rect x="985" y="1260" width="55" height="325" fill="none" stroke="black" />
    <rect x="680" y="1260" width="55" height="325" fill="none" stroke="black" />
    <rect x="735" y="1205" width="250" height="55" fill="none" stroke="black" />
    <image x="735" y="1585" width="250" height="55" xlink:href="../logo_golem_arcana_wide.png" />
    <rect x="735" y="1095" width="250" height="110" fill="none" stroke="black" />
  </g>
</svg>
